<svg viewBox="0 0 1040 720" xmlns="http://www.w3.org/2000/svg" font-family="Segoe UI, Helvetica, Arial, sans-serif" role="img" aria-labelledby="f1title f1desc">
<title id="f1title">DAG prasyarat kurikulum</title>
<desc id="f1desc">Ontologi konsep Intro-Python dengan 8 konsep dalam 5 kolom kedalaman prasyarat dan 15 sisi prasyarat berarah. Tiap konsep menampilkan ambang penguasaan per-konsep.</desc>
<rect width="1040" height="720" fill="#ffffff"/>
<defs>
<marker id="arrow" viewBox="0 0 10 10" refX="9" refY="5" markerWidth="7" markerHeight="7" orient="auto-start-reverse">
<path d="M0,0 L10,5 L0,10 z" fill="#334155"/>
</marker>
</defs>
<text x="32" y="42" font-size="22" font-weight="bold" fill="#0f172a">DAG prasyarat kurikulum</text>
<text x="32" y="64" font-size="13" fill="#475569">Ontologi konsep Intro-Python (concept_registry.py)</text>
<text x="120" y="104" font-size="11" font-weight="bold" fill="#94a3b8" text-anchor="middle">kedalaman 0</text>
<text x="305" y="104" font-size="11" font-weight="bold" fill="#94a3b8" text-anchor="middle">kedalaman 1</text>
<text x="500" y="104" font-size="11" font-weight="bold" fill="#94a3b8" text-anchor="middle">kedalaman 2</text>
<text x="700" y="104" font-size="11" font-weight="bold" fill="#94a3b8" text-anchor="middle">kedalaman 3</text>
<text x="895" y="104" font-size="11" font-weight="bold" fill="#94a3b8" text-anchor="middle">kedalaman 4</text>
<g fill="none" stroke="#334155" stroke-width="1.6">
<path d="M180,296 C205,290 222,290 245,294" marker-end="url(#arrow)"/>
<path d="M180,288 C300,210 360,180 430,178" marker-end="url(#arrow)"/>
<path d="M365,292 C395,250 405,210 432,196" marker-end="url(#arrow)"/>
<path d="M180,304 C300,320 360,304 442,300" marker-end="url(#arrow)"/>
<path d="M365,308 C400,308 415,302 442,300" marker-end="url(#arrow)"/>
<path d="M180,314 C260,400 330,418 418,420" marker-end="url(#arrow)"/>
<path d="M345,322 C380,372 388,402 418,418" marker-end="url(#arrow)"/>
<path d="M180,294 C420,120 560,150 632,224" marker-end="url(#arrow)"/>
<path d="M365,288 C470,212 560,214 630,236" marker-end="url(#arrow)"/>
<path d="M540,202 C580,212 600,222 628,232" marker-end="url(#arrow)"/>
<path d="M558,296 C590,282 605,262 630,250" marker-end="url(#arrow)"/>
<path d="M355,322 C470,470 560,440 646,406" marker-end="url(#arrow)"/>
<path d="M540,322 C580,352 610,380 646,396" marker-end="url(#arrow)"/>
<path d="M365,310 C520,560 740,470 830,410" marker-end="url(#arrow)"/>
<path d="M752,400 C780,400 800,400 828,400" marker-end="url(#arrow)"/>
</g>
<g>
<rect x="60" y="278" width="120" height="44" rx="8" fill="#ede9fe" stroke="#1e293b" stroke-width="1.4"/>
<text x="120" y="298" font-size="12" fill="#0f172a" text-anchor="middle" font-weight="bold">Urutan</text>
<rect x="84" y="304" width="72" height="13" rx="3" fill="#ffffff" stroke="#dc2626" stroke-width="0.8"/>
<path d="M70,310 l5,-5 l5,5 l-5,5 z" fill="#dc2626"/>
<text x="120" y="314" font-size="9" fill="#dc2626" text-anchor="middle">gerbang 0,75</text>
</g>
<g>
<rect x="245" y="278" width="120" height="44" rx="8" fill="#dbeafe" stroke="#1e293b" stroke-width="1.4"/>
<text x="305" y="298" font-size="12" fill="#0f172a" text-anchor="middle" font-weight="bold">Variabel</text>
<rect x="269" y="304" width="72" height="13" rx="3" fill="#ffffff" stroke="#dc2626" stroke-width="0.8"/>
<path d="M255,310 l5,-5 l5,5 l-5,5 z" fill="#dc2626"/>
<text x="305" y="314" font-size="9" fill="#dc2626" text-anchor="middle">gerbang 0,70</text>
</g>
<g>
<rect x="430" y="158" width="140" height="44" rx="8" fill="#dbeafe" stroke="#1e293b" stroke-width="1.4"/>
<text x="500" y="178" font-size="12" fill="#0f172a" text-anchor="middle" font-weight="bold">Percabangan</text>
<rect x="464" y="184" width="72" height="13" rx="3" fill="#ffffff" stroke="#dc2626" stroke-width="0.8"/>
<path d="M450,190 l5,-5 l5,5 l-5,5 z" fill="#dc2626"/>
<text x="500" y="194" font-size="9" fill="#dc2626" text-anchor="middle">gerbang 0,70</text>
</g>
<g>
<rect x="442" y="278" width="116" height="44" rx="8" fill="#dbeafe" stroke="#1e293b" stroke-width="1.4"/>
<text x="500" y="298" font-size="12" fill="#0f172a" text-anchor="middle" font-weight="bold">Perulangan</text>
<rect x="464" y="304" width="72" height="13" rx="3" fill="#ffffff" stroke="#dc2626" stroke-width="0.8"/>
<path d="M450,310 l5,-5 l5,5 l-5,5 z" fill="#dc2626"/>
<text x="500" y="314" font-size="9" fill="#dc2626" text-anchor="middle">gerbang 0,70</text>
</g>
<g>
<rect x="420" y="398" width="160" height="44" rx="8" fill="#dcfce7" stroke="#1e293b" stroke-width="1.4"/>
<text x="500" y="418" font-size="12" fill="#0f172a" text-anchor="middle" font-weight="bold">Dekomposisi</text>
<rect x="464" y="424" width="72" height="13" rx="3" fill="#ffffff" stroke="#dc2626" stroke-width="0.8"/>
<path d="M450,430 l5,-5 l5,5 l-5,5 z" fill="#dc2626"/>
<text x="500" y="434" font-size="9" fill="#dc2626" text-anchor="middle">gerbang 0,65</text>
</g>
<g>
<rect x="632" y="218" width="136" height="44" rx="8" fill="#dbeafe" stroke="#1e293b" stroke-width="1.4"/>
<text x="700" y="238" font-size="12" fill="#0f172a" text-anchor="middle" font-weight="bold">Fungsi</text>
<rect x="664" y="244" width="72" height="13" rx="3" fill="#ffffff" stroke="#dc2626" stroke-width="0.8"/>
<path d="M650,250 l5,-5 l5,5 l-5,5 z" fill="#dc2626"/>
<text x="700" y="254" font-size="9" fill="#dc2626" text-anchor="middle">gerbang 0,65</text>
</g>
<g>
<rect x="648" y="378" width="104" height="44" rx="8" fill="#dbeafe" stroke="#1e293b" stroke-width="1.4"/>
<text x="700" y="398" font-size="12" fill="#0f172a" text-anchor="middle" font-weight="bold">List</text>
<rect x="664" y="404" width="72" height="13" rx="3" fill="#ffffff" stroke="#dc2626" stroke-width="0.8"/>
<path d="M650,410 l5,-5 l5,5 l-5,5 z" fill="#dc2626"/>
<text x="700" y="414" font-size="9" fill="#dc2626" text-anchor="middle">gerbang 0,65</text>
</g>
<g>
<rect x="830" y="378" width="130" height="44" rx="8" fill="#dbeafe" stroke="#1e293b" stroke-width="1.4"/>
<text x="895" y="398" font-size="12" fill="#0f172a" text-anchor="middle" font-weight="bold">Dictionary</text>
<rect x="859" y="404" width="72" height="13" rx="3" fill="#ffffff" stroke="#dc2626" stroke-width="0.8"/>
<path d="M845,410 l5,-5 l5,5 l-5,5 z" fill="#dc2626"/>
<text x="895" y="414" font-size="9" fill="#dc2626" text-anchor="middle">gerbang 0,60</text>
</g>
<g>
<rect x="772" y="498" width="236" height="148" rx="8" fill="#f8fafc" stroke="#cbd5e1" stroke-width="1"/>
<text x="788" y="520" font-size="12" font-weight="bold" fill="#0f172a">Keterangan</text>
<rect x="788" y="530" width="22" height="14" rx="4" fill="#ede9fe" stroke="#1e293b" stroke-width="1.2"/>
<text x="818" y="541" font-size="12" fill="#334155">konsep pengetahuan</text>
<rect x="788" y="552" width="22" height="14" rx="4" fill="#dbeafe" stroke="#1e293b" stroke-width="1.2"/>
<text x="818" y="563" font-size="12" fill="#334155">konsep keterampilan</text>
<rect x="788" y="574" width="22" height="14" rx="4" fill="#dcfce7" stroke="#1e293b" stroke-width="1.2"/>
<text x="818" y="585" font-size="12" fill="#334155">konsep praktik</text>
<line x1="788" y1="603" x2="812" y2="603" stroke="#334155" stroke-width="1.6" marker-end="url(#arrow)"/>
<text x="818" y="607" font-size="12" fill="#334155">sisi prasyarat (15)</text>
<path d="M790,625 l5,-5 l5,5 l-5,5 z" fill="#dc2626"/>
<text x="818" y="629" font-size="12" fill="#334155">gerbang penguasaan per-konsep</text>
</g>
<text x="32" y="706" font-size="11" font-style="italic" fill="#94a3b8">Sumber: HCIE_SYSTEM_BACKEND_FINAL/01_source/00_core/10_curriculum/concept_registry.py — initialize_intro_python_curriculum(); 8 konsep, 15 sisi prasyarat. Ambang bersifat per-konsep (tidak ada gerbang global dalam berkas ini).</text>
</svg>