<svg viewBox="0 0 1040 720" xmlns="http://www.w3.org/2000/svg" font-family="Segoe UI, Helvetica, Arial, sans-serif"><rect width="1040" height="720" fill="#ffffff"/><defs><marker id="arrow" markerWidth="8" markerHeight="8" refX="6" refY="3" orient="auto" markerUnits="strokeWidth"><path d="M0,0 L6,3 L0,6 Z" fill="#475569"/></marker></defs><text x="60" y="50" font-size="22" font-weight="bold" fill="#0f172a">Kontrol kausal shuffled-DAG</text><text x="60" y="74" font-size="13" fill="#475569">apakah struktur prasyarat MENYEBABKAN transfer durable? (uji shuffled-DAG, sampel penuh K=1000)</text><line x1="60" y1="92" x2="980" y2="92" stroke="#e2e8f0" stroke-width="1"/><text x="60" y="124" font-size="13" font-weight="bold" fill="#0f172a">Efek transfer (skala-x bersama untuk semua batang magnitudo)</text><line x1="340" y1="140" x2="340" y2="468" stroke="#cbd5e1" stroke-width="1.5"/><text x="340" y="158" font-size="10" fill="#94a3b8" text-anchor="middle">0</text><line x1="340" y1="468" x2="980" y2="468" stroke="#cbd5e1" stroke-width="1"/><text x="500" y="484" font-size="9" fill="#94a3b8" text-anchor="middle">0,040</text><text x="660" y="484" font-size="9" fill="#94a3b8" text-anchor="middle">0,080</text><text x="820" y="484" font-size="9" fill="#94a3b8" text-anchor="middle">0,120</text><text x="980" y="484" font-size="9" fill="#94a3b8" text-anchor="middle">0,160</text><rect x="284" y="166" width="56" height="288" fill="#eef2ff" opacity="0.6"/><line x1="284" y1="166" x2="284" y2="454" stroke="#a5b4fc" stroke-width="1" stroke-dasharray="3,3"/><line x1="340" y1="166" x2="340" y2="454" stroke="#6366f1" stroke-width="1.5"/><text x="312" y="306" font-size="9" fill="#6366f1" text-anchor="middle" transform="rotate(-90 312 306)">pita null permutasi</text><text x="276" y="160" font-size="9" fill="#818cf8" text-anchor="end">rata-rata null = -0,014</text><text x="48" y="194" font-size="12" fill="#0f172a" text-anchor="end" font-weight="bold">teramati</text><text x="48" y="210" font-size="11" fill="#475569" text-anchor="end">lintas-keluarga</text><rect x="340" y="180" width="364" height="34" fill="#2563eb"/><text x="714" y="202" font-size="13" fill="#1e3a8a" font-weight="bold">0,091</text><text x="48" y="256" font-size="12" fill="#0f172a" text-anchor="end" font-weight="bold">plasebo</text><text x="48" y="272" font-size="11" fill="#475569" text-anchor="end">masa-depan→masa-lalu</text><rect x="340" y="242" width="152" height="34" fill="#93c5fd"/><text x="502" y="264" font-size="13" fill="#1e40af" font-weight="bold">0,038</text><text x="48" y="324" font-size="12" fill="#0f172a" text-anchor="end" font-weight="bold">residu</text><text x="48" y="340" font-size="11" fill="#475569" text-anchor="end">(teramati − plasebo)</text><rect x="340" y="310" width="212" height="34" fill="#60a5fa"/><text x="562" y="332" font-size="13" fill="#1e40af" font-weight="bold">0,053</text><text x="48" y="392" font-size="12" fill="#94a3b8" text-anchor="end">confound</text><text x="48" y="408" font-size="11" fill="#94a3b8" text-anchor="end">keluarga-sama</text><rect x="340" y="378" width="476" height="34" fill="#cbd5e1"/><text x="826" y="400" font-size="13" fill="#64748b" font-weight="bold">0,119</text><text x="48" y="440" font-size="12" fill="#94a3b8" text-anchor="end">confound</text><text x="48" y="456" font-size="11" fill="#94a3b8" text-anchor="end">proksimitas</text><rect x="340" y="426" width="536" height="34" fill="#94a3b8"/><text x="886" y="448" font-size="13" fill="#475569" font-weight="bold">0,134</text><line x1="704" y1="166" x2="704" y2="470" stroke="#1e3a8a" stroke-width="1" stroke-dasharray="4,3"/><text x="704" y="500" font-size="9" fill="#1e3a8a" text-anchor="middle">batas teramati (0,091)</text><rect x="60" y="520" width="600" height="150" rx="8" fill="#fef3c7" stroke="#f59e0b" stroke-width="1.5"/><text x="80" y="546" font-size="13" font-weight="bold" fill="#92400e">Kejujuran: confound LEBIH BESAR dari efek teramati</text><text x="80" y="570" font-size="11.5" fill="#78350f">Batang proksimitas (0,134) dan keluarga-sama (0,119) terlihat LEBIH</text><text x="80" y="588" font-size="11.5" fill="#78350f">PANJANG daripada batang lintas-keluarga teramati (0,091).</text><text x="80" y="612" font-size="11.5" fill="#78350f">Maka efeknya NYATA secara statistik (p &lt; 0,001) — plasebo masa-</text><text x="80" y="630" font-size="11.5" fill="#78350f">depan→masa-lalu jauh lebih kecil (0,038) — TETAPI tidak murni</text><text x="80" y="648" font-size="11.5" fill="#78350f">kausal: sebagian besar terjelaskan oleh proksimitas/keluarga-sama.</text><rect x="690" y="520" width="290" height="150" rx="8" fill="#f8fafc" stroke="#e2e8f0" stroke-width="1.5"/><text x="710" y="546" font-size="13" font-weight="bold" fill="#0f172a">Uji permutasi</text><text x="710" y="572" font-size="12" fill="#1e3a8a" font-weight="bold">p &lt; 0,001</text><text x="788" y="572" font-size="11" fill="#475569">atas 1000 permutasi</text><text x="710" y="596" font-size="11" fill="#475569">rata-rata null = -0,014</text><text x="710" y="618" font-size="11" fill="#475569">n = 1.976.020 baris</text><text x="710" y="636" font-size="11" fill="#475569">(232.440 pembelajar)</text><text x="710" y="658" font-size="11" fill="#475569" font-weight="bold">mode: sampel penuh (full)</text><line x1="60" y1="690" x2="980" y2="690" stroke="#e2e8f0" stroke-width="1"/><text x="60" y="708" font-size="11" font-style="italic" fill="#94a3b8">Sumber: prospective_probe_v3_full_K1000.json (probe_prospective_transfer_v3.py --full --permutations 1000, seed 20260531)</text></svg>