<?xml version="1.0" encoding="utf-8" standalone="no"?>
<!DOCTYPE svg PUBLIC "-//W3C//DTD SVG 1.1//EN"
  "http://www.w3.org/Graphics/SVG/1.1/DTD/svg11.dtd">
<svg xmlns:xlink="http://www.w3.org/1999/xlink" width="408.238438pt" height="380.652688pt" viewBox="0 0 408.238438 380.652688" xmlns="http://www.w3.org/2000/svg" version="1.1">
 <metadata>
  <rdf:RDF xmlns:dc="http://purl.org/dc/elements/1.1/" xmlns:cc="http://creativecommons.org/ns#" xmlns:rdf="http://www.w3.org/1999/02/22-rdf-syntax-ns#">
   <cc:Work>
    <dc:type rdf:resource="http://purl.org/dc/dcmitype/StillImage"/>
    <dc:date>2026-07-01T04:57:27.415440</dc:date>
    <dc:format>image/svg+xml</dc:format>
    <dc:creator>
     <cc:Agent>
      <dc:title>Matplotlib v3.7.2, https://matplotlib.org/</dc:title>
     </cc:Agent>
    </dc:creator>
   </cc:Work>
  </rdf:RDF>
 </metadata>
 <defs>
  <style type="text/css">*{stroke-linejoin: round; stroke-linecap: butt}</style>
 </defs>
 <g id="figure_1">
  <g id="patch_1">
   <path d="M 0 380.652688 
L 408.238437 380.652688 
L 408.238437 0 
L 0 0 
z
" style="fill: #ffffff"/>
  </g>
  <g id="axes_1">
   <g id="patch_2">
    <path d="M 50.14375 343.096438 
L 362.18375 343.096438 
L 362.18375 31.056438 
L 50.14375 31.056438 
z
" style="fill: #ffffff"/>
   </g>
   <g id="matplotlib.axis_1">
    <g id="xtick_1">
     <g id="line2d_1">
      <path d="M 64.327386 343.096438 
L 64.327386 31.056438 
" clip-path="url(#p99c169a338)" style="fill: none; stroke-dasharray: 2.96,1.28; stroke-dashoffset: 0; stroke: #b0b0b0; stroke-opacity: 0.4; stroke-width: 0.8"/>
     </g>
     <g id="line2d_2">
      <defs>
       <path id="m5fcf2a5b0d" d="M 0 0 
L 0 3.5 
" style="stroke: #000000; stroke-width: 0.8"/>
      </defs>
      <g>
       <use xlink:href="#m5fcf2a5b0d" x="64.327386" y="343.096438" style="stroke: #000000; stroke-width: 0.8"/>
      </g>
     </g>
     <g id="text_1">
      <!-- 0,00 -->
      <g transform="translate(53.194574 357.694875) scale(0.1 -0.1)">
       <defs>
        <path id="DejaVuSans-30" d="M 2034 4250 
Q 1547 4250 1301 3770 
Q 1056 3291 1056 2328 
Q 1056 1369 1301 889 
Q 1547 409 2034 409 
Q 2525 409 2770 889 
Q 3016 1369 3016 2328 
Q 3016 3291 2770 3770 
Q 2525 4250 2034 4250 
z
M 2034 4750 
Q 2819 4750 3233 4129 
Q 3647 3509 3647 2328 
Q 3647 1150 3233 529 
Q 2819 -91 2034 -91 
Q 1250 -91 836 529 
Q 422 1150 422 2328 
Q 422 3509 836 4129 
Q 1250 4750 2034 4750 
z
" transform="scale(0.015625)"/>
        <path id="DejaVuSans-2c" d="M 750 794 
L 1409 794 
L 1409 256 
L 897 -744 
L 494 -744 
L 750 256 
L 750 794 
z
" transform="scale(0.015625)"/>
       </defs>
       <use xlink:href="#DejaVuSans-30"/>
       <use xlink:href="#DejaVuSans-2c" x="63.623047"/>
       <use xlink:href="#DejaVuSans-30" x="95.410156"/>
       <use xlink:href="#DejaVuSans-30" x="159.033203"/>
      </g>
     </g>
    </g>
    <g id="xtick_2">
     <g id="line2d_3">
      <path d="M 121.061932 343.096438 
L 121.061932 31.056438 
" clip-path="url(#p99c169a338)" style="fill: none; stroke-dasharray: 2.96,1.28; stroke-dashoffset: 0; stroke: #b0b0b0; stroke-opacity: 0.4; stroke-width: 0.8"/>
     </g>
     <g id="line2d_4">
      <g>
       <use xlink:href="#m5fcf2a5b0d" x="121.061932" y="343.096438" style="stroke: #000000; stroke-width: 0.8"/>
      </g>
     </g>
     <g id="text_2">
      <!-- 0,20 -->
      <g transform="translate(109.929119 357.694875) scale(0.1 -0.1)">
       <defs>
        <path id="DejaVuSans-32" d="M 1228 531 
L 3431 531 
L 3431 0 
L 469 0 
L 469 531 
Q 828 903 1448 1529 
Q 2069 2156 2228 2338 
Q 2531 2678 2651 2914 
Q 2772 3150 2772 3378 
Q 2772 3750 2511 3984 
Q 2250 4219 1831 4219 
Q 1534 4219 1204 4116 
Q 875 4013 500 3803 
L 500 4441 
Q 881 4594 1212 4672 
Q 1544 4750 1819 4750 
Q 2544 4750 2975 4387 
Q 3406 4025 3406 3419 
Q 3406 3131 3298 2873 
Q 3191 2616 2906 2266 
Q 2828 2175 2409 1742 
Q 1991 1309 1228 531 
z
" transform="scale(0.015625)"/>
       </defs>
       <use xlink:href="#DejaVuSans-30"/>
       <use xlink:href="#DejaVuSans-2c" x="63.623047"/>
       <use xlink:href="#DejaVuSans-32" x="95.410156"/>
       <use xlink:href="#DejaVuSans-30" x="159.033203"/>
      </g>
     </g>
    </g>
    <g id="xtick_3">
     <g id="line2d_5">
      <path d="M 177.796477 343.096438 
L 177.796477 31.056438 
" clip-path="url(#p99c169a338)" style="fill: none; stroke-dasharray: 2.96,1.28; stroke-dashoffset: 0; stroke: #b0b0b0; stroke-opacity: 0.4; stroke-width: 0.8"/>
     </g>
     <g id="line2d_6">
      <g>
       <use xlink:href="#m5fcf2a5b0d" x="177.796477" y="343.096438" style="stroke: #000000; stroke-width: 0.8"/>
      </g>
     </g>
     <g id="text_3">
      <!-- 0,40 -->
      <g transform="translate(166.663665 357.694875) scale(0.1 -0.1)">
       <defs>
        <path id="DejaVuSans-34" d="M 2419 4116 
L 825 1625 
L 2419 1625 
L 2419 4116 
z
M 2253 4666 
L 3047 4666 
L 3047 1625 
L 3713 1625 
L 3713 1100 
L 3047 1100 
L 3047 0 
L 2419 0 
L 2419 1100 
L 313 1100 
L 313 1709 
L 2253 4666 
z
" transform="scale(0.015625)"/>
       </defs>
       <use xlink:href="#DejaVuSans-30"/>
       <use xlink:href="#DejaVuSans-2c" x="63.623047"/>
       <use xlink:href="#DejaVuSans-34" x="95.410156"/>
       <use xlink:href="#DejaVuSans-30" x="159.033203"/>
      </g>
     </g>
    </g>
    <g id="xtick_4">
     <g id="line2d_7">
      <path d="M 234.531023 343.096438 
L 234.531023 31.056438 
" clip-path="url(#p99c169a338)" style="fill: none; stroke-dasharray: 2.96,1.28; stroke-dashoffset: 0; stroke: #b0b0b0; stroke-opacity: 0.4; stroke-width: 0.8"/>
     </g>
     <g id="line2d_8">
      <g>
       <use xlink:href="#m5fcf2a5b0d" x="234.531023" y="343.096438" style="stroke: #000000; stroke-width: 0.8"/>
      </g>
     </g>
     <g id="text_4">
      <!-- 0,60 -->
      <g transform="translate(223.39821 357.694875) scale(0.1 -0.1)">
       <defs>
        <path id="DejaVuSans-36" d="M 2113 2584 
Q 1688 2584 1439 2293 
Q 1191 2003 1191 1497 
Q 1191 994 1439 701 
Q 1688 409 2113 409 
Q 2538 409 2786 701 
Q 3034 994 3034 1497 
Q 3034 2003 2786 2293 
Q 2538 2584 2113 2584 
z
M 3366 4563 
L 3366 3988 
Q 3128 4100 2886 4159 
Q 2644 4219 2406 4219 
Q 1781 4219 1451 3797 
Q 1122 3375 1075 2522 
Q 1259 2794 1537 2939 
Q 1816 3084 2150 3084 
Q 2853 3084 3261 2657 
Q 3669 2231 3669 1497 
Q 3669 778 3244 343 
Q 2819 -91 2113 -91 
Q 1303 -91 875 529 
Q 447 1150 447 2328 
Q 447 3434 972 4092 
Q 1497 4750 2381 4750 
Q 2619 4750 2861 4703 
Q 3103 4656 3366 4563 
z
" transform="scale(0.015625)"/>
       </defs>
       <use xlink:href="#DejaVuSans-30"/>
       <use xlink:href="#DejaVuSans-2c" x="63.623047"/>
       <use xlink:href="#DejaVuSans-36" x="95.410156"/>
       <use xlink:href="#DejaVuSans-30" x="159.033203"/>
      </g>
     </g>
    </g>
    <g id="xtick_5">
     <g id="line2d_9">
      <path d="M 291.265568 343.096438 
L 291.265568 31.056438 
" clip-path="url(#p99c169a338)" style="fill: none; stroke-dasharray: 2.96,1.28; stroke-dashoffset: 0; stroke: #b0b0b0; stroke-opacity: 0.4; stroke-width: 0.8"/>
     </g>
     <g id="line2d_10">
      <g>
       <use xlink:href="#m5fcf2a5b0d" x="291.265568" y="343.096438" style="stroke: #000000; stroke-width: 0.8"/>
      </g>
     </g>
     <g id="text_5">
      <!-- 0,80 -->
      <g transform="translate(280.132756 357.694875) scale(0.1 -0.1)">
       <defs>
        <path id="DejaVuSans-38" d="M 2034 2216 
Q 1584 2216 1326 1975 
Q 1069 1734 1069 1313 
Q 1069 891 1326 650 
Q 1584 409 2034 409 
Q 2484 409 2743 651 
Q 3003 894 3003 1313 
Q 3003 1734 2745 1975 
Q 2488 2216 2034 2216 
z
M 1403 2484 
Q 997 2584 770 2862 
Q 544 3141 544 3541 
Q 544 4100 942 4425 
Q 1341 4750 2034 4750 
Q 2731 4750 3128 4425 
Q 3525 4100 3525 3541 
Q 3525 3141 3298 2862 
Q 3072 2584 2669 2484 
Q 3125 2378 3379 2068 
Q 3634 1759 3634 1313 
Q 3634 634 3220 271 
Q 2806 -91 2034 -91 
Q 1263 -91 848 271 
Q 434 634 434 1313 
Q 434 1759 690 2068 
Q 947 2378 1403 2484 
z
M 1172 3481 
Q 1172 3119 1398 2916 
Q 1625 2713 2034 2713 
Q 2441 2713 2670 2916 
Q 2900 3119 2900 3481 
Q 2900 3844 2670 4047 
Q 2441 4250 2034 4250 
Q 1625 4250 1398 4047 
Q 1172 3844 1172 3481 
z
" transform="scale(0.015625)"/>
       </defs>
       <use xlink:href="#DejaVuSans-30"/>
       <use xlink:href="#DejaVuSans-2c" x="63.623047"/>
       <use xlink:href="#DejaVuSans-38" x="95.410156"/>
       <use xlink:href="#DejaVuSans-30" x="159.033203"/>
      </g>
     </g>
    </g>
    <g id="xtick_6">
     <g id="line2d_11">
      <path d="M 348.000114 343.096438 
L 348.000114 31.056438 
" clip-path="url(#p99c169a338)" style="fill: none; stroke-dasharray: 2.96,1.28; stroke-dashoffset: 0; stroke: #b0b0b0; stroke-opacity: 0.4; stroke-width: 0.8"/>
     </g>
     <g id="line2d_12">
      <g>
       <use xlink:href="#m5fcf2a5b0d" x="348.000114" y="343.096438" style="stroke: #000000; stroke-width: 0.8"/>
      </g>
     </g>
     <g id="text_6">
      <!-- 1,00 -->
      <g transform="translate(336.867301 357.694875) scale(0.1 -0.1)">
       <defs>
        <path id="DejaVuSans-31" d="M 794 531 
L 1825 531 
L 1825 4091 
L 703 3866 
L 703 4441 
L 1819 4666 
L 2450 4666 
L 2450 531 
L 3481 531 
L 3481 0 
L 794 0 
L 794 531 
z
" transform="scale(0.015625)"/>
       </defs>
       <use xlink:href="#DejaVuSans-31"/>
       <use xlink:href="#DejaVuSans-2c" x="63.623047"/>
       <use xlink:href="#DejaVuSans-30" x="95.410156"/>
       <use xlink:href="#DejaVuSans-30" x="159.033203"/>
      </g>
     </g>
    </g>
    <g id="text_7">
     <!-- Probabilitas prediksi P(benar) -->
     <g transform="translate(132.745781 371.373) scale(0.1 -0.1)">
      <defs>
       <path id="DejaVuSans-50" d="M 1259 4147 
L 1259 2394 
L 2053 2394 
Q 2494 2394 2734 2622 
Q 2975 2850 2975 3272 
Q 2975 3691 2734 3919 
Q 2494 4147 2053 4147 
L 1259 4147 
z
M 628 4666 
L 2053 4666 
Q 2838 4666 3239 4311 
Q 3641 3956 3641 3272 
Q 3641 2581 3239 2228 
Q 2838 1875 2053 1875 
L 1259 1875 
L 1259 0 
L 628 0 
L 628 4666 
z
" transform="scale(0.015625)"/>
       <path id="DejaVuSans-72" d="M 2631 2963 
Q 2534 3019 2420 3045 
Q 2306 3072 2169 3072 
Q 1681 3072 1420 2755 
Q 1159 2438 1159 1844 
L 1159 0 
L 581 0 
L 581 3500 
L 1159 3500 
L 1159 2956 
Q 1341 3275 1631 3429 
Q 1922 3584 2338 3584 
Q 2397 3584 2469 3576 
Q 2541 3569 2628 3553 
L 2631 2963 
z
" transform="scale(0.015625)"/>
       <path id="DejaVuSans-6f" d="M 1959 3097 
Q 1497 3097 1228 2736 
Q 959 2375 959 1747 
Q 959 1119 1226 758 
Q 1494 397 1959 397 
Q 2419 397 2687 759 
Q 2956 1122 2956 1747 
Q 2956 2369 2687 2733 
Q 2419 3097 1959 3097 
z
M 1959 3584 
Q 2709 3584 3137 3096 
Q 3566 2609 3566 1747 
Q 3566 888 3137 398 
Q 2709 -91 1959 -91 
Q 1206 -91 779 398 
Q 353 888 353 1747 
Q 353 2609 779 3096 
Q 1206 3584 1959 3584 
z
" transform="scale(0.015625)"/>
       <path id="DejaVuSans-62" d="M 3116 1747 
Q 3116 2381 2855 2742 
Q 2594 3103 2138 3103 
Q 1681 3103 1420 2742 
Q 1159 2381 1159 1747 
Q 1159 1113 1420 752 
Q 1681 391 2138 391 
Q 2594 391 2855 752 
Q 3116 1113 3116 1747 
z
M 1159 2969 
Q 1341 3281 1617 3432 
Q 1894 3584 2278 3584 
Q 2916 3584 3314 3078 
Q 3713 2572 3713 1747 
Q 3713 922 3314 415 
Q 2916 -91 2278 -91 
Q 1894 -91 1617 61 
Q 1341 213 1159 525 
L 1159 0 
L 581 0 
L 581 4863 
L 1159 4863 
L 1159 2969 
z
" transform="scale(0.015625)"/>
       <path id="DejaVuSans-61" d="M 2194 1759 
Q 1497 1759 1228 1600 
Q 959 1441 959 1056 
Q 959 750 1161 570 
Q 1363 391 1709 391 
Q 2188 391 2477 730 
Q 2766 1069 2766 1631 
L 2766 1759 
L 2194 1759 
z
M 3341 1997 
L 3341 0 
L 2766 0 
L 2766 531 
Q 2569 213 2275 61 
Q 1981 -91 1556 -91 
Q 1019 -91 701 211 
Q 384 513 384 1019 
Q 384 1609 779 1909 
Q 1175 2209 1959 2209 
L 2766 2209 
L 2766 2266 
Q 2766 2663 2505 2880 
Q 2244 3097 1772 3097 
Q 1472 3097 1187 3025 
Q 903 2953 641 2809 
L 641 3341 
Q 956 3463 1253 3523 
Q 1550 3584 1831 3584 
Q 2591 3584 2966 3190 
Q 3341 2797 3341 1997 
z
" transform="scale(0.015625)"/>
       <path id="DejaVuSans-69" d="M 603 3500 
L 1178 3500 
L 1178 0 
L 603 0 
L 603 3500 
z
M 603 4863 
L 1178 4863 
L 1178 4134 
L 603 4134 
L 603 4863 
z
" transform="scale(0.015625)"/>
       <path id="DejaVuSans-6c" d="M 603 4863 
L 1178 4863 
L 1178 0 
L 603 0 
L 603 4863 
z
" transform="scale(0.015625)"/>
       <path id="DejaVuSans-74" d="M 1172 4494 
L 1172 3500 
L 2356 3500 
L 2356 3053 
L 1172 3053 
L 1172 1153 
Q 1172 725 1289 603 
Q 1406 481 1766 481 
L 2356 481 
L 2356 0 
L 1766 0 
Q 1100 0 847 248 
Q 594 497 594 1153 
L 594 3053 
L 172 3053 
L 172 3500 
L 594 3500 
L 594 4494 
L 1172 4494 
z
" transform="scale(0.015625)"/>
       <path id="DejaVuSans-73" d="M 2834 3397 
L 2834 2853 
Q 2591 2978 2328 3040 
Q 2066 3103 1784 3103 
Q 1356 3103 1142 2972 
Q 928 2841 928 2578 
Q 928 2378 1081 2264 
Q 1234 2150 1697 2047 
L 1894 2003 
Q 2506 1872 2764 1633 
Q 3022 1394 3022 966 
Q 3022 478 2636 193 
Q 2250 -91 1575 -91 
Q 1294 -91 989 -36 
Q 684 19 347 128 
L 347 722 
Q 666 556 975 473 
Q 1284 391 1588 391 
Q 1994 391 2212 530 
Q 2431 669 2431 922 
Q 2431 1156 2273 1281 
Q 2116 1406 1581 1522 
L 1381 1569 
Q 847 1681 609 1914 
Q 372 2147 372 2553 
Q 372 3047 722 3315 
Q 1072 3584 1716 3584 
Q 2034 3584 2315 3537 
Q 2597 3491 2834 3397 
z
" transform="scale(0.015625)"/>
       <path id="DejaVuSans-20" transform="scale(0.015625)"/>
       <path id="DejaVuSans-70" d="M 1159 525 
L 1159 -1331 
L 581 -1331 
L 581 3500 
L 1159 3500 
L 1159 2969 
Q 1341 3281 1617 3432 
Q 1894 3584 2278 3584 
Q 2916 3584 3314 3078 
Q 3713 2572 3713 1747 
Q 3713 922 3314 415 
Q 2916 -91 2278 -91 
Q 1894 -91 1617 61 
Q 1341 213 1159 525 
z
M 3116 1747 
Q 3116 2381 2855 2742 
Q 2594 3103 2138 3103 
Q 1681 3103 1420 2742 
Q 1159 2381 1159 1747 
Q 1159 1113 1420 752 
Q 1681 391 2138 391 
Q 2594 391 2855 752 
Q 3116 1113 3116 1747 
z
" transform="scale(0.015625)"/>
       <path id="DejaVuSans-65" d="M 3597 1894 
L 3597 1613 
L 953 1613 
Q 991 1019 1311 708 
Q 1631 397 2203 397 
Q 2534 397 2845 478 
Q 3156 559 3463 722 
L 3463 178 
Q 3153 47 2828 -22 
Q 2503 -91 2169 -91 
Q 1331 -91 842 396 
Q 353 884 353 1716 
Q 353 2575 817 3079 
Q 1281 3584 2069 3584 
Q 2775 3584 3186 3129 
Q 3597 2675 3597 1894 
z
M 3022 2063 
Q 3016 2534 2758 2815 
Q 2500 3097 2075 3097 
Q 1594 3097 1305 2825 
Q 1016 2553 972 2059 
L 3022 2063 
z
" transform="scale(0.015625)"/>
       <path id="DejaVuSans-64" d="M 2906 2969 
L 2906 4863 
L 3481 4863 
L 3481 0 
L 2906 0 
L 2906 525 
Q 2725 213 2448 61 
Q 2172 -91 1784 -91 
Q 1150 -91 751 415 
Q 353 922 353 1747 
Q 353 2572 751 3078 
Q 1150 3584 1784 3584 
Q 2172 3584 2448 3432 
Q 2725 3281 2906 2969 
z
M 947 1747 
Q 947 1113 1208 752 
Q 1469 391 1925 391 
Q 2381 391 2643 752 
Q 2906 1113 2906 1747 
Q 2906 2381 2643 2742 
Q 2381 3103 1925 3103 
Q 1469 3103 1208 2742 
Q 947 2381 947 1747 
z
" transform="scale(0.015625)"/>
       <path id="DejaVuSans-6b" d="M 581 4863 
L 1159 4863 
L 1159 1991 
L 2875 3500 
L 3609 3500 
L 1753 1863 
L 3688 0 
L 2938 0 
L 1159 1709 
L 1159 0 
L 581 0 
L 581 4863 
z
" transform="scale(0.015625)"/>
       <path id="DejaVuSans-28" d="M 1984 4856 
Q 1566 4138 1362 3434 
Q 1159 2731 1159 2009 
Q 1159 1288 1364 580 
Q 1569 -128 1984 -844 
L 1484 -844 
Q 1016 -109 783 600 
Q 550 1309 550 2009 
Q 550 2706 781 3412 
Q 1013 4119 1484 4856 
L 1984 4856 
z
" transform="scale(0.015625)"/>
       <path id="DejaVuSans-6e" d="M 3513 2113 
L 3513 0 
L 2938 0 
L 2938 2094 
Q 2938 2591 2744 2837 
Q 2550 3084 2163 3084 
Q 1697 3084 1428 2787 
Q 1159 2491 1159 1978 
L 1159 0 
L 581 0 
L 581 3500 
L 1159 3500 
L 1159 2956 
Q 1366 3272 1645 3428 
Q 1925 3584 2291 3584 
Q 2894 3584 3203 3211 
Q 3513 2838 3513 2113 
z
" transform="scale(0.015625)"/>
       <path id="DejaVuSans-29" d="M 513 4856 
L 1013 4856 
Q 1481 4119 1714 3412 
Q 1947 2706 1947 2009 
Q 1947 1309 1714 600 
Q 1481 -109 1013 -844 
L 513 -844 
Q 928 -128 1133 580 
Q 1338 1288 1338 2009 
Q 1338 2731 1133 3434 
Q 928 4138 513 4856 
z
" transform="scale(0.015625)"/>
      </defs>
      <use xlink:href="#DejaVuSans-50"/>
      <use xlink:href="#DejaVuSans-72" x="58.552734"/>
      <use xlink:href="#DejaVuSans-6f" x="97.416016"/>
      <use xlink:href="#DejaVuSans-62" x="158.597656"/>
      <use xlink:href="#DejaVuSans-61" x="222.074219"/>
      <use xlink:href="#DejaVuSans-62" x="283.353516"/>
      <use xlink:href="#DejaVuSans-69" x="346.830078"/>
      <use xlink:href="#DejaVuSans-6c" x="374.613281"/>
      <use xlink:href="#DejaVuSans-69" x="402.396484"/>
      <use xlink:href="#DejaVuSans-74" x="430.179688"/>
      <use xlink:href="#DejaVuSans-61" x="469.388672"/>
      <use xlink:href="#DejaVuSans-73" x="530.667969"/>
      <use xlink:href="#DejaVuSans-20" x="582.767578"/>
      <use xlink:href="#DejaVuSans-70" x="614.554688"/>
      <use xlink:href="#DejaVuSans-72" x="678.03125"/>
      <use xlink:href="#DejaVuSans-65" x="716.894531"/>
      <use xlink:href="#DejaVuSans-64" x="778.417969"/>
      <use xlink:href="#DejaVuSans-69" x="841.894531"/>
      <use xlink:href="#DejaVuSans-6b" x="869.677734"/>
      <use xlink:href="#DejaVuSans-73" x="927.587891"/>
      <use xlink:href="#DejaVuSans-69" x="979.6875"/>
      <use xlink:href="#DejaVuSans-20" x="1007.470703"/>
      <use xlink:href="#DejaVuSans-50" x="1039.257812"/>
      <use xlink:href="#DejaVuSans-28" x="1099.560547"/>
      <use xlink:href="#DejaVuSans-62" x="1138.574219"/>
      <use xlink:href="#DejaVuSans-65" x="1202.050781"/>
      <use xlink:href="#DejaVuSans-6e" x="1263.574219"/>
      <use xlink:href="#DejaVuSans-61" x="1326.953125"/>
      <use xlink:href="#DejaVuSans-72" x="1388.232422"/>
      <use xlink:href="#DejaVuSans-29" x="1429.345703"/>
     </g>
    </g>
   </g>
   <g id="matplotlib.axis_2">
    <g id="ytick_1">
     <g id="line2d_13">
      <path d="M 50.14375 328.912801 
L 362.18375 328.912801 
" clip-path="url(#p99c169a338)" style="fill: none; stroke-dasharray: 2.96,1.28; stroke-dashoffset: 0; stroke: #b0b0b0; stroke-opacity: 0.4; stroke-width: 0.8"/>
     </g>
     <g id="line2d_14">
      <defs>
       <path id="m7b9e06b3f4" d="M 0 0 
L -3.5 0 
" style="stroke: #000000; stroke-width: 0.8"/>
      </defs>
      <g>
       <use xlink:href="#m7b9e06b3f4" x="50.14375" y="328.912801" style="stroke: #000000; stroke-width: 0.8"/>
      </g>
     </g>
     <g id="text_8">
      <!-- 0,00 -->
      <g transform="translate(20.878125 332.71202) scale(0.1 -0.1)">
       <use xlink:href="#DejaVuSans-30"/>
       <use xlink:href="#DejaVuSans-2c" x="63.623047"/>
       <use xlink:href="#DejaVuSans-30" x="95.410156"/>
       <use xlink:href="#DejaVuSans-30" x="159.033203"/>
      </g>
     </g>
    </g>
    <g id="ytick_2">
     <g id="line2d_15">
      <path d="M 50.14375 272.178256 
L 362.18375 272.178256 
" clip-path="url(#p99c169a338)" style="fill: none; stroke-dasharray: 2.96,1.28; stroke-dashoffset: 0; stroke: #b0b0b0; stroke-opacity: 0.4; stroke-width: 0.8"/>
     </g>
     <g id="line2d_16">
      <g>
       <use xlink:href="#m7b9e06b3f4" x="50.14375" y="272.178256" style="stroke: #000000; stroke-width: 0.8"/>
      </g>
     </g>
     <g id="text_9">
      <!-- 0,20 -->
      <g transform="translate(20.878125 275.977474) scale(0.1 -0.1)">
       <use xlink:href="#DejaVuSans-30"/>
       <use xlink:href="#DejaVuSans-2c" x="63.623047"/>
       <use xlink:href="#DejaVuSans-32" x="95.410156"/>
       <use xlink:href="#DejaVuSans-30" x="159.033203"/>
      </g>
     </g>
    </g>
    <g id="ytick_3">
     <g id="line2d_17">
      <path d="M 50.14375 215.44371 
L 362.18375 215.44371 
" clip-path="url(#p99c169a338)" style="fill: none; stroke-dasharray: 2.96,1.28; stroke-dashoffset: 0; stroke: #b0b0b0; stroke-opacity: 0.4; stroke-width: 0.8"/>
     </g>
     <g id="line2d_18">
      <g>
       <use xlink:href="#m7b9e06b3f4" x="50.14375" y="215.44371" style="stroke: #000000; stroke-width: 0.8"/>
      </g>
     </g>
     <g id="text_10">
      <!-- 0,40 -->
      <g transform="translate(20.878125 219.242929) scale(0.1 -0.1)">
       <use xlink:href="#DejaVuSans-30"/>
       <use xlink:href="#DejaVuSans-2c" x="63.623047"/>
       <use xlink:href="#DejaVuSans-34" x="95.410156"/>
       <use xlink:href="#DejaVuSans-30" x="159.033203"/>
      </g>
     </g>
    </g>
    <g id="ytick_4">
     <g id="line2d_19">
      <path d="M 50.14375 158.709165 
L 362.18375 158.709165 
" clip-path="url(#p99c169a338)" style="fill: none; stroke-dasharray: 2.96,1.28; stroke-dashoffset: 0; stroke: #b0b0b0; stroke-opacity: 0.4; stroke-width: 0.8"/>
     </g>
     <g id="line2d_20">
      <g>
       <use xlink:href="#m7b9e06b3f4" x="50.14375" y="158.709165" style="stroke: #000000; stroke-width: 0.8"/>
      </g>
     </g>
     <g id="text_11">
      <!-- 0,60 -->
      <g transform="translate(20.878125 162.508384) scale(0.1 -0.1)">
       <use xlink:href="#DejaVuSans-30"/>
       <use xlink:href="#DejaVuSans-2c" x="63.623047"/>
       <use xlink:href="#DejaVuSans-36" x="95.410156"/>
       <use xlink:href="#DejaVuSans-30" x="159.033203"/>
      </g>
     </g>
    </g>
    <g id="ytick_5">
     <g id="line2d_21">
      <path d="M 50.14375 101.974619 
L 362.18375 101.974619 
" clip-path="url(#p99c169a338)" style="fill: none; stroke-dasharray: 2.96,1.28; stroke-dashoffset: 0; stroke: #b0b0b0; stroke-opacity: 0.4; stroke-width: 0.8"/>
     </g>
     <g id="line2d_22">
      <g>
       <use xlink:href="#m7b9e06b3f4" x="50.14375" y="101.974619" style="stroke: #000000; stroke-width: 0.8"/>
      </g>
     </g>
     <g id="text_12">
      <!-- 0,80 -->
      <g transform="translate(20.878125 105.773838) scale(0.1 -0.1)">
       <use xlink:href="#DejaVuSans-30"/>
       <use xlink:href="#DejaVuSans-2c" x="63.623047"/>
       <use xlink:href="#DejaVuSans-38" x="95.410156"/>
       <use xlink:href="#DejaVuSans-30" x="159.033203"/>
      </g>
     </g>
    </g>
    <g id="ytick_6">
     <g id="line2d_23">
      <path d="M 50.14375 45.240074 
L 362.18375 45.240074 
" clip-path="url(#p99c169a338)" style="fill: none; stroke-dasharray: 2.96,1.28; stroke-dashoffset: 0; stroke: #b0b0b0; stroke-opacity: 0.4; stroke-width: 0.8"/>
     </g>
     <g id="line2d_24">
      <g>
       <use xlink:href="#m7b9e06b3f4" x="50.14375" y="45.240074" style="stroke: #000000; stroke-width: 0.8"/>
      </g>
     </g>
     <g id="text_13">
      <!-- 1,00 -->
      <g transform="translate(20.878125 49.039293) scale(0.1 -0.1)">
       <use xlink:href="#DejaVuSans-31"/>
       <use xlink:href="#DejaVuSans-2c" x="63.623047"/>
       <use xlink:href="#DejaVuSans-30" x="95.410156"/>
       <use xlink:href="#DejaVuSans-30" x="159.033203"/>
      </g>
     </g>
    </g>
    <g id="text_14">
     <!-- Frekuensi teramati (akurasi) -->
     <g transform="translate(14.798438 257.360813) rotate(-90) scale(0.1 -0.1)">
      <defs>
       <path id="DejaVuSans-46" d="M 628 4666 
L 3309 4666 
L 3309 4134 
L 1259 4134 
L 1259 2759 
L 3109 2759 
L 3109 2228 
L 1259 2228 
L 1259 0 
L 628 0 
L 628 4666 
z
" transform="scale(0.015625)"/>
       <path id="DejaVuSans-75" d="M 544 1381 
L 544 3500 
L 1119 3500 
L 1119 1403 
Q 1119 906 1312 657 
Q 1506 409 1894 409 
Q 2359 409 2629 706 
Q 2900 1003 2900 1516 
L 2900 3500 
L 3475 3500 
L 3475 0 
L 2900 0 
L 2900 538 
Q 2691 219 2414 64 
Q 2138 -91 1772 -91 
Q 1169 -91 856 284 
Q 544 659 544 1381 
z
M 1991 3584 
L 1991 3584 
z
" transform="scale(0.015625)"/>
       <path id="DejaVuSans-6d" d="M 3328 2828 
Q 3544 3216 3844 3400 
Q 4144 3584 4550 3584 
Q 5097 3584 5394 3201 
Q 5691 2819 5691 2113 
L 5691 0 
L 5113 0 
L 5113 2094 
Q 5113 2597 4934 2840 
Q 4756 3084 4391 3084 
Q 3944 3084 3684 2787 
Q 3425 2491 3425 1978 
L 3425 0 
L 2847 0 
L 2847 2094 
Q 2847 2600 2669 2842 
Q 2491 3084 2119 3084 
Q 1678 3084 1418 2786 
Q 1159 2488 1159 1978 
L 1159 0 
L 581 0 
L 581 3500 
L 1159 3500 
L 1159 2956 
Q 1356 3278 1631 3431 
Q 1906 3584 2284 3584 
Q 2666 3584 2933 3390 
Q 3200 3197 3328 2828 
z
" transform="scale(0.015625)"/>
      </defs>
      <use xlink:href="#DejaVuSans-46"/>
      <use xlink:href="#DejaVuSans-72" x="50.269531"/>
      <use xlink:href="#DejaVuSans-65" x="89.132812"/>
      <use xlink:href="#DejaVuSans-6b" x="150.65625"/>
      <use xlink:href="#DejaVuSans-75" x="205.441406"/>
      <use xlink:href="#DejaVuSans-65" x="268.820312"/>
      <use xlink:href="#DejaVuSans-6e" x="330.34375"/>
      <use xlink:href="#DejaVuSans-73" x="393.722656"/>
      <use xlink:href="#DejaVuSans-69" x="445.822266"/>
      <use xlink:href="#DejaVuSans-20" x="473.605469"/>
      <use xlink:href="#DejaVuSans-74" x="505.392578"/>
      <use xlink:href="#DejaVuSans-65" x="544.601562"/>
      <use xlink:href="#DejaVuSans-72" x="606.125"/>
      <use xlink:href="#DejaVuSans-61" x="647.238281"/>
      <use xlink:href="#DejaVuSans-6d" x="708.517578"/>
      <use xlink:href="#DejaVuSans-61" x="805.929688"/>
      <use xlink:href="#DejaVuSans-74" x="867.208984"/>
      <use xlink:href="#DejaVuSans-69" x="906.417969"/>
      <use xlink:href="#DejaVuSans-20" x="934.201172"/>
      <use xlink:href="#DejaVuSans-28" x="965.988281"/>
      <use xlink:href="#DejaVuSans-61" x="1005.001953"/>
      <use xlink:href="#DejaVuSans-6b" x="1066.28125"/>
      <use xlink:href="#DejaVuSans-75" x="1121.066406"/>
      <use xlink:href="#DejaVuSans-72" x="1184.445312"/>
      <use xlink:href="#DejaVuSans-61" x="1225.558594"/>
      <use xlink:href="#DejaVuSans-73" x="1286.837891"/>
      <use xlink:href="#DejaVuSans-69" x="1338.9375"/>
      <use xlink:href="#DejaVuSans-29" x="1366.720703"/>
     </g>
    </g>
   </g>
   <g id="line2d_25">
    <path d="M 64.327386 328.912801 
L 348.000114 45.240074 
" clip-path="url(#p99c169a338)" style="fill: none; stroke-dasharray: 5.55,2.4; stroke-dashoffset: 0; stroke: #94a3b8; stroke-width: 1.5"/>
   </g>
   <g id="line2d_26">
    <path d="M 84.22466 183.172684 
L 106.040736 161.41081 
L 137.971182 152.930646 
L 164.782299 163.563457 
L 193.188885 115.110204 
L 220.961741 112.955499 
L 252.007484 92.518862 
L 280.897957 93.031647 
L 306.405036 78.150605 
L 331.23378 81.366082 
" clip-path="url(#p99c169a338)" style="fill: none; stroke: #2563eb; stroke-width: 2; stroke-linecap: square"/>
    <defs>
     <path id="m7a59d58c3b" d="M 0 3 
C 0.795609 3 1.55874 2.683901 2.12132 2.12132 
C 2.683901 1.55874 3 0.795609 3 0 
C 3 -0.795609 2.683901 -1.55874 2.12132 -2.12132 
C 1.55874 -2.683901 0.795609 -3 0 -3 
C -0.795609 -3 -1.55874 -2.683901 -2.12132 -2.12132 
C -2.683901 -1.55874 -3 -0.795609 -3 0 
C -3 0.795609 -2.683901 1.55874 -2.12132 2.12132 
C -1.55874 2.683901 -0.795609 3 0 3 
z
" style="stroke: #2563eb"/>
    </defs>
    <g clip-path="url(#p99c169a338)">
     <use xlink:href="#m7a59d58c3b" x="84.22466" y="183.172684" style="fill: #2563eb; stroke: #2563eb"/>
     <use xlink:href="#m7a59d58c3b" x="106.040736" y="161.41081" style="fill: #2563eb; stroke: #2563eb"/>
     <use xlink:href="#m7a59d58c3b" x="137.971182" y="152.930646" style="fill: #2563eb; stroke: #2563eb"/>
     <use xlink:href="#m7a59d58c3b" x="164.782299" y="163.563457" style="fill: #2563eb; stroke: #2563eb"/>
     <use xlink:href="#m7a59d58c3b" x="193.188885" y="115.110204" style="fill: #2563eb; stroke: #2563eb"/>
     <use xlink:href="#m7a59d58c3b" x="220.961741" y="112.955499" style="fill: #2563eb; stroke: #2563eb"/>
     <use xlink:href="#m7a59d58c3b" x="252.007484" y="92.518862" style="fill: #2563eb; stroke: #2563eb"/>
     <use xlink:href="#m7a59d58c3b" x="280.897957" y="93.031647" style="fill: #2563eb; stroke: #2563eb"/>
     <use xlink:href="#m7a59d58c3b" x="306.405036" y="78.150605" style="fill: #2563eb; stroke: #2563eb"/>
     <use xlink:href="#m7a59d58c3b" x="331.23378" y="81.366082" style="fill: #2563eb; stroke: #2563eb"/>
    </g>
   </g>
   <g id="line2d_27">
    <path d="M 224.218584 184.497595 
L 248.861255 158.891006 
L 283.211076 108.996221 
L 309.50283 83.189838 
" clip-path="url(#p99c169a338)" style="fill: none; stroke: #16a34a; stroke-width: 2; stroke-linecap: square"/>
    <defs>
     <path id="mc9d7cb9438" d="M -3 3 
L 3 3 
L 3 -3 
L -3 -3 
z
" style="stroke: #16a34a; stroke-linejoin: miter"/>
    </defs>
    <g clip-path="url(#p99c169a338)">
     <use xlink:href="#mc9d7cb9438" x="224.218584" y="184.497595" style="fill: #16a34a; stroke: #16a34a; stroke-linejoin: miter"/>
     <use xlink:href="#mc9d7cb9438" x="248.861255" y="158.891006" style="fill: #16a34a; stroke: #16a34a; stroke-linejoin: miter"/>
     <use xlink:href="#mc9d7cb9438" x="283.211076" y="108.996221" style="fill: #16a34a; stroke: #16a34a; stroke-linejoin: miter"/>
     <use xlink:href="#mc9d7cb9438" x="309.50283" y="83.189838" style="fill: #16a34a; stroke: #16a34a; stroke-linejoin: miter"/>
    </g>
   </g>
   <g id="line2d_28">
    <path d="M 145.437688 172.754199 
L 160.997943 141.461863 
L 196.000157 153.03571 
L 215.921841 127.842094 
L 237.413074 91.901645 
L 280.940045 116.744356 
L 317.625996 81.482367 
L 319.632841 87.998954 
" clip-path="url(#p99c169a338)" style="fill: none; stroke: #64748b; stroke-width: 1.5; stroke-linecap: square"/>
    <defs>
     <path id="mf219e4c60e" d="M 0 -3 
L -3 3 
L 3 3 
z
" style="stroke: #64748b; stroke-linejoin: miter"/>
    </defs>
    <g clip-path="url(#p99c169a338)">
     <use xlink:href="#mf219e4c60e" x="145.437688" y="172.754199" style="fill: #64748b; stroke: #64748b; stroke-linejoin: miter"/>
     <use xlink:href="#mf219e4c60e" x="160.997943" y="141.461863" style="fill: #64748b; stroke: #64748b; stroke-linejoin: miter"/>
     <use xlink:href="#mf219e4c60e" x="196.000157" y="153.03571" style="fill: #64748b; stroke: #64748b; stroke-linejoin: miter"/>
     <use xlink:href="#mf219e4c60e" x="215.921841" y="127.842094" style="fill: #64748b; stroke: #64748b; stroke-linejoin: miter"/>
     <use xlink:href="#mf219e4c60e" x="237.413074" y="91.901645" style="fill: #64748b; stroke: #64748b; stroke-linejoin: miter"/>
     <use xlink:href="#mf219e4c60e" x="280.940045" y="116.744356" style="fill: #64748b; stroke: #64748b; stroke-linejoin: miter"/>
     <use xlink:href="#mf219e4c60e" x="317.625996" y="81.482367" style="fill: #64748b; stroke: #64748b; stroke-linejoin: miter"/>
     <use xlink:href="#mf219e4c60e" x="319.632841" y="87.998954" style="fill: #64748b; stroke: #64748b; stroke-linejoin: miter"/>
    </g>
   </g>
   <g id="patch_3">
    <path d="M 50.14375 343.096438 
L 50.14375 31.056437 
" style="fill: none; stroke: #000000; stroke-width: 0.8; stroke-linejoin: miter; stroke-linecap: square"/>
   </g>
   <g id="patch_4">
    <path d="M 362.18375 343.096438 
L 362.18375 31.056437 
" style="fill: none; stroke: #000000; stroke-width: 0.8; stroke-linejoin: miter; stroke-linecap: square"/>
   </g>
   <g id="patch_5">
    <path d="M 50.14375 343.096438 
L 362.18375 343.096438 
" style="fill: none; stroke: #000000; stroke-width: 0.8; stroke-linejoin: miter; stroke-linecap: square"/>
   </g>
   <g id="patch_6">
    <path d="M 50.14375 31.056438 
L 362.18375 31.056438 
" style="fill: none; stroke: #000000; stroke-width: 0.8; stroke-linejoin: miter; stroke-linecap: square"/>
   </g>
   <g id="text_15">
    <!-- Diagram reliabilitas kalibrasi (run tersegel) -->
    <g transform="translate(104.228008 14.418516) scale(0.095 -0.095)">
     <defs>
      <path id="DejaVuSans-44" d="M 1259 4147 
L 1259 519 
L 2022 519 
Q 2988 519 3436 956 
Q 3884 1394 3884 2338 
Q 3884 3275 3436 3711 
Q 2988 4147 2022 4147 
L 1259 4147 
z
M 628 4666 
L 1925 4666 
Q 3281 4666 3915 4102 
Q 4550 3538 4550 2338 
Q 4550 1131 3912 565 
Q 3275 0 1925 0 
L 628 0 
L 628 4666 
z
" transform="scale(0.015625)"/>
      <path id="DejaVuSans-67" d="M 2906 1791 
Q 2906 2416 2648 2759 
Q 2391 3103 1925 3103 
Q 1463 3103 1205 2759 
Q 947 2416 947 1791 
Q 947 1169 1205 825 
Q 1463 481 1925 481 
Q 2391 481 2648 825 
Q 2906 1169 2906 1791 
z
M 3481 434 
Q 3481 -459 3084 -895 
Q 2688 -1331 1869 -1331 
Q 1566 -1331 1297 -1286 
Q 1028 -1241 775 -1147 
L 775 -588 
Q 1028 -725 1275 -790 
Q 1522 -856 1778 -856 
Q 2344 -856 2625 -561 
Q 2906 -266 2906 331 
L 2906 616 
Q 2728 306 2450 153 
Q 2172 0 1784 0 
Q 1141 0 747 490 
Q 353 981 353 1791 
Q 353 2603 747 3093 
Q 1141 3584 1784 3584 
Q 2172 3584 2450 3431 
Q 2728 3278 2906 2969 
L 2906 3500 
L 3481 3500 
L 3481 434 
z
" transform="scale(0.015625)"/>
     </defs>
     <use xlink:href="#DejaVuSans-44"/>
     <use xlink:href="#DejaVuSans-69" x="77.001953"/>
     <use xlink:href="#DejaVuSans-61" x="104.785156"/>
     <use xlink:href="#DejaVuSans-67" x="166.064453"/>
     <use xlink:href="#DejaVuSans-72" x="229.541016"/>
     <use xlink:href="#DejaVuSans-61" x="270.654297"/>
     <use xlink:href="#DejaVuSans-6d" x="331.933594"/>
     <use xlink:href="#DejaVuSans-20" x="429.345703"/>
     <use xlink:href="#DejaVuSans-72" x="461.132812"/>
     <use xlink:href="#DejaVuSans-65" x="499.996094"/>
     <use xlink:href="#DejaVuSans-6c" x="561.519531"/>
     <use xlink:href="#DejaVuSans-69" x="589.302734"/>
     <use xlink:href="#DejaVuSans-61" x="617.085938"/>
     <use xlink:href="#DejaVuSans-62" x="678.365234"/>
     <use xlink:href="#DejaVuSans-69" x="741.841797"/>
     <use xlink:href="#DejaVuSans-6c" x="769.625"/>
     <use xlink:href="#DejaVuSans-69" x="797.408203"/>
     <use xlink:href="#DejaVuSans-74" x="825.191406"/>
     <use xlink:href="#DejaVuSans-61" x="864.400391"/>
     <use xlink:href="#DejaVuSans-73" x="925.679688"/>
     <use xlink:href="#DejaVuSans-20" x="977.779297"/>
     <use xlink:href="#DejaVuSans-6b" x="1009.566406"/>
     <use xlink:href="#DejaVuSans-61" x="1065.726562"/>
     <use xlink:href="#DejaVuSans-6c" x="1127.005859"/>
     <use xlink:href="#DejaVuSans-69" x="1154.789062"/>
     <use xlink:href="#DejaVuSans-62" x="1182.572266"/>
     <use xlink:href="#DejaVuSans-72" x="1246.048828"/>
     <use xlink:href="#DejaVuSans-61" x="1287.162109"/>
     <use xlink:href="#DejaVuSans-73" x="1348.441406"/>
     <use xlink:href="#DejaVuSans-69" x="1400.541016"/>
     <use xlink:href="#DejaVuSans-20" x="1428.324219"/>
     <use xlink:href="#DejaVuSans-28" x="1460.111328"/>
     <use xlink:href="#DejaVuSans-72" x="1499.125"/>
     <use xlink:href="#DejaVuSans-75" x="1540.238281"/>
     <use xlink:href="#DejaVuSans-6e" x="1603.617188"/>
     <use xlink:href="#DejaVuSans-20" x="1666.996094"/>
     <use xlink:href="#DejaVuSans-74" x="1698.783203"/>
     <use xlink:href="#DejaVuSans-65" x="1737.992188"/>
     <use xlink:href="#DejaVuSans-72" x="1799.515625"/>
     <use xlink:href="#DejaVuSans-73" x="1840.628906"/>
     <use xlink:href="#DejaVuSans-65" x="1892.728516"/>
     <use xlink:href="#DejaVuSans-67" x="1954.251953"/>
     <use xlink:href="#DejaVuSans-65" x="2017.728516"/>
     <use xlink:href="#DejaVuSans-6c" x="2079.251953"/>
     <use xlink:href="#DejaVuSans-29" x="2107.035156"/>
    </g>
    <!-- HCIE mentah kurang terkalibrasi dari BKT; Platt menutup celah, AUC tetap 0,6051 -->
    <g transform="translate(11.289063 25.056438) scale(0.095 -0.095)">
     <defs>
      <path id="DejaVuSans-48" d="M 628 4666 
L 1259 4666 
L 1259 2753 
L 3553 2753 
L 3553 4666 
L 4184 4666 
L 4184 0 
L 3553 0 
L 3553 2222 
L 1259 2222 
L 1259 0 
L 628 0 
L 628 4666 
z
" transform="scale(0.015625)"/>
      <path id="DejaVuSans-43" d="M 4122 4306 
L 4122 3641 
Q 3803 3938 3442 4084 
Q 3081 4231 2675 4231 
Q 1875 4231 1450 3742 
Q 1025 3253 1025 2328 
Q 1025 1406 1450 917 
Q 1875 428 2675 428 
Q 3081 428 3442 575 
Q 3803 722 4122 1019 
L 4122 359 
Q 3791 134 3420 21 
Q 3050 -91 2638 -91 
Q 1578 -91 968 557 
Q 359 1206 359 2328 
Q 359 3453 968 4101 
Q 1578 4750 2638 4750 
Q 3056 4750 3426 4639 
Q 3797 4528 4122 4306 
z
" transform="scale(0.015625)"/>
      <path id="DejaVuSans-49" d="M 628 4666 
L 1259 4666 
L 1259 0 
L 628 0 
L 628 4666 
z
" transform="scale(0.015625)"/>
      <path id="DejaVuSans-45" d="M 628 4666 
L 3578 4666 
L 3578 4134 
L 1259 4134 
L 1259 2753 
L 3481 2753 
L 3481 2222 
L 1259 2222 
L 1259 531 
L 3634 531 
L 3634 0 
L 628 0 
L 628 4666 
z
" transform="scale(0.015625)"/>
      <path id="DejaVuSans-68" d="M 3513 2113 
L 3513 0 
L 2938 0 
L 2938 2094 
Q 2938 2591 2744 2837 
Q 2550 3084 2163 3084 
Q 1697 3084 1428 2787 
Q 1159 2491 1159 1978 
L 1159 0 
L 581 0 
L 581 4863 
L 1159 4863 
L 1159 2956 
Q 1366 3272 1645 3428 
Q 1925 3584 2291 3584 
Q 2894 3584 3203 3211 
Q 3513 2838 3513 2113 
z
" transform="scale(0.015625)"/>
      <path id="DejaVuSans-42" d="M 1259 2228 
L 1259 519 
L 2272 519 
Q 2781 519 3026 730 
Q 3272 941 3272 1375 
Q 3272 1813 3026 2020 
Q 2781 2228 2272 2228 
L 1259 2228 
z
M 1259 4147 
L 1259 2741 
L 2194 2741 
Q 2656 2741 2882 2914 
Q 3109 3088 3109 3444 
Q 3109 3797 2882 3972 
Q 2656 4147 2194 4147 
L 1259 4147 
z
M 628 4666 
L 2241 4666 
Q 2963 4666 3353 4366 
Q 3744 4066 3744 3513 
Q 3744 3084 3544 2831 
Q 3344 2578 2956 2516 
Q 3422 2416 3680 2098 
Q 3938 1781 3938 1306 
Q 3938 681 3513 340 
Q 3088 0 2303 0 
L 628 0 
L 628 4666 
z
" transform="scale(0.015625)"/>
      <path id="DejaVuSans-4b" d="M 628 4666 
L 1259 4666 
L 1259 2694 
L 3353 4666 
L 4166 4666 
L 1850 2491 
L 4331 0 
L 3500 0 
L 1259 2247 
L 1259 0 
L 628 0 
L 628 4666 
z
" transform="scale(0.015625)"/>
      <path id="DejaVuSans-54" d="M -19 4666 
L 3928 4666 
L 3928 4134 
L 2272 4134 
L 2272 0 
L 1638 0 
L 1638 4134 
L -19 4134 
L -19 4666 
z
" transform="scale(0.015625)"/>
      <path id="DejaVuSans-3b" d="M 750 3309 
L 1409 3309 
L 1409 2516 
L 750 2516 
L 750 3309 
z
M 750 794 
L 1409 794 
L 1409 256 
L 897 -744 
L 494 -744 
L 750 256 
L 750 794 
z
" transform="scale(0.015625)"/>
      <path id="DejaVuSans-63" d="M 3122 3366 
L 3122 2828 
Q 2878 2963 2633 3030 
Q 2388 3097 2138 3097 
Q 1578 3097 1268 2742 
Q 959 2388 959 1747 
Q 959 1106 1268 751 
Q 1578 397 2138 397 
Q 2388 397 2633 464 
Q 2878 531 3122 666 
L 3122 134 
Q 2881 22 2623 -34 
Q 2366 -91 2075 -91 
Q 1284 -91 818 406 
Q 353 903 353 1747 
Q 353 2603 823 3093 
Q 1294 3584 2113 3584 
Q 2378 3584 2631 3529 
Q 2884 3475 3122 3366 
z
" transform="scale(0.015625)"/>
      <path id="DejaVuSans-41" d="M 2188 4044 
L 1331 1722 
L 3047 1722 
L 2188 4044 
z
M 1831 4666 
L 2547 4666 
L 4325 0 
L 3669 0 
L 3244 1197 
L 1141 1197 
L 716 0 
L 50 0 
L 1831 4666 
z
" transform="scale(0.015625)"/>
      <path id="DejaVuSans-55" d="M 556 4666 
L 1191 4666 
L 1191 1831 
Q 1191 1081 1462 751 
Q 1734 422 2344 422 
Q 2950 422 3222 751 
Q 3494 1081 3494 1831 
L 3494 4666 
L 4128 4666 
L 4128 1753 
Q 4128 841 3676 375 
Q 3225 -91 2344 -91 
Q 1459 -91 1007 375 
Q 556 841 556 1753 
L 556 4666 
z
" transform="scale(0.015625)"/>
      <path id="DejaVuSans-35" d="M 691 4666 
L 3169 4666 
L 3169 4134 
L 1269 4134 
L 1269 2991 
Q 1406 3038 1543 3061 
Q 1681 3084 1819 3084 
Q 2600 3084 3056 2656 
Q 3513 2228 3513 1497 
Q 3513 744 3044 326 
Q 2575 -91 1722 -91 
Q 1428 -91 1123 -41 
Q 819 9 494 109 
L 494 744 
Q 775 591 1075 516 
Q 1375 441 1709 441 
Q 2250 441 2565 725 
Q 2881 1009 2881 1497 
Q 2881 1984 2565 2268 
Q 2250 2553 1709 2553 
Q 1456 2553 1204 2497 
Q 953 2441 691 2322 
L 691 4666 
z
" transform="scale(0.015625)"/>
     </defs>
     <use xlink:href="#DejaVuSans-48"/>
     <use xlink:href="#DejaVuSans-43" x="75.195312"/>
     <use xlink:href="#DejaVuSans-49" x="145.019531"/>
     <use xlink:href="#DejaVuSans-45" x="174.511719"/>
     <use xlink:href="#DejaVuSans-20" x="237.695312"/>
     <use xlink:href="#DejaVuSans-6d" x="269.482422"/>
     <use xlink:href="#DejaVuSans-65" x="366.894531"/>
     <use xlink:href="#DejaVuSans-6e" x="428.417969"/>
     <use xlink:href="#DejaVuSans-74" x="491.796875"/>
     <use xlink:href="#DejaVuSans-61" x="531.005859"/>
     <use xlink:href="#DejaVuSans-68" x="592.285156"/>
     <use xlink:href="#DejaVuSans-20" x="655.664062"/>
     <use xlink:href="#DejaVuSans-6b" x="687.451172"/>
     <use xlink:href="#DejaVuSans-75" x="742.236328"/>
     <use xlink:href="#DejaVuSans-72" x="805.615234"/>
     <use xlink:href="#DejaVuSans-61" x="846.728516"/>
     <use xlink:href="#DejaVuSans-6e" x="908.007812"/>
     <use xlink:href="#DejaVuSans-67" x="971.386719"/>
     <use xlink:href="#DejaVuSans-20" x="1034.863281"/>
     <use xlink:href="#DejaVuSans-74" x="1066.650391"/>
     <use xlink:href="#DejaVuSans-65" x="1105.859375"/>
     <use xlink:href="#DejaVuSans-72" x="1167.382812"/>
     <use xlink:href="#DejaVuSans-6b" x="1208.496094"/>
     <use xlink:href="#DejaVuSans-61" x="1264.65625"/>
     <use xlink:href="#DejaVuSans-6c" x="1325.935547"/>
     <use xlink:href="#DejaVuSans-69" x="1353.71875"/>
     <use xlink:href="#DejaVuSans-62" x="1381.501953"/>
     <use xlink:href="#DejaVuSans-72" x="1444.978516"/>
     <use xlink:href="#DejaVuSans-61" x="1486.091797"/>
     <use xlink:href="#DejaVuSans-73" x="1547.371094"/>
     <use xlink:href="#DejaVuSans-69" x="1599.470703"/>
     <use xlink:href="#DejaVuSans-20" x="1627.253906"/>
     <use xlink:href="#DejaVuSans-64" x="1659.041016"/>
     <use xlink:href="#DejaVuSans-61" x="1722.517578"/>
     <use xlink:href="#DejaVuSans-72" x="1783.796875"/>
     <use xlink:href="#DejaVuSans-69" x="1824.910156"/>
     <use xlink:href="#DejaVuSans-20" x="1852.693359"/>
     <use xlink:href="#DejaVuSans-42" x="1884.480469"/>
     <use xlink:href="#DejaVuSans-4b" x="1953.083984"/>
     <use xlink:href="#DejaVuSans-54" x="2010.910156"/>
     <use xlink:href="#DejaVuSans-3b" x="2071.994141"/>
     <use xlink:href="#DejaVuSans-20" x="2105.685547"/>
     <use xlink:href="#DejaVuSans-50" x="2137.472656"/>
     <use xlink:href="#DejaVuSans-6c" x="2197.775391"/>
     <use xlink:href="#DejaVuSans-61" x="2225.558594"/>
     <use xlink:href="#DejaVuSans-74" x="2286.837891"/>
     <use xlink:href="#DejaVuSans-74" x="2326.046875"/>
     <use xlink:href="#DejaVuSans-20" x="2365.255859"/>
     <use xlink:href="#DejaVuSans-6d" x="2397.042969"/>
     <use xlink:href="#DejaVuSans-65" x="2494.455078"/>
     <use xlink:href="#DejaVuSans-6e" x="2555.978516"/>
     <use xlink:href="#DejaVuSans-75" x="2619.357422"/>
     <use xlink:href="#DejaVuSans-74" x="2682.736328"/>
     <use xlink:href="#DejaVuSans-75" x="2721.945312"/>
     <use xlink:href="#DejaVuSans-70" x="2785.324219"/>
     <use xlink:href="#DejaVuSans-20" x="2848.800781"/>
     <use xlink:href="#DejaVuSans-63" x="2880.587891"/>
     <use xlink:href="#DejaVuSans-65" x="2935.568359"/>
     <use xlink:href="#DejaVuSans-6c" x="2997.091797"/>
     <use xlink:href="#DejaVuSans-61" x="3024.875"/>
     <use xlink:href="#DejaVuSans-68" x="3086.154297"/>
     <use xlink:href="#DejaVuSans-2c" x="3149.533203"/>
     <use xlink:href="#DejaVuSans-20" x="3181.320312"/>
     <use xlink:href="#DejaVuSans-41" x="3213.107422"/>
     <use xlink:href="#DejaVuSans-55" x="3281.515625"/>
     <use xlink:href="#DejaVuSans-43" x="3354.708984"/>
     <use xlink:href="#DejaVuSans-20" x="3424.533203"/>
     <use xlink:href="#DejaVuSans-74" x="3456.320312"/>
     <use xlink:href="#DejaVuSans-65" x="3495.529297"/>
     <use xlink:href="#DejaVuSans-74" x="3557.052734"/>
     <use xlink:href="#DejaVuSans-61" x="3596.261719"/>
     <use xlink:href="#DejaVuSans-70" x="3657.541016"/>
     <use xlink:href="#DejaVuSans-20" x="3721.017578"/>
     <use xlink:href="#DejaVuSans-30" x="3752.804688"/>
     <use xlink:href="#DejaVuSans-2c" x="3816.427734"/>
     <use xlink:href="#DejaVuSans-36" x="3848.214844"/>
     <use xlink:href="#DejaVuSans-30" x="3911.837891"/>
     <use xlink:href="#DejaVuSans-35" x="3975.460938"/>
     <use xlink:href="#DejaVuSans-31" x="4039.083984"/>
    </g>
   </g>
   <g id="legend_1">
    <g id="patch_7">
     <path d="M 56.09375 87.762062 
L 192.0725 87.762062 
Q 193.7725 87.762062 193.7725 86.062062 
L 193.7725 37.006437 
Q 193.7725 35.306437 192.0725 35.306437 
L 56.09375 35.306437 
Q 54.39375 35.306437 54.39375 37.006437 
L 54.39375 86.062062 
Q 54.39375 87.762062 56.09375 87.762062 
z
" style="fill: #ffffff; opacity: 0.8; stroke: #cccccc; stroke-linejoin: miter"/>
    </g>
    <g id="line2d_29">
     <path d="M 57.79375 42.190109 
L 66.29375 42.190109 
L 74.79375 42.190109 
" style="fill: none; stroke-dasharray: 5.55,2.4; stroke-dashoffset: 0; stroke: #94a3b8; stroke-width: 1.5"/>
    </g>
    <g id="text_16">
     <!-- kalibrasi sempurna -->
     <g transform="translate(81.59375 45.165109) scale(0.085 -0.085)">
      <use xlink:href="#DejaVuSans-6b"/>
      <use xlink:href="#DejaVuSans-61" x="56.160156"/>
      <use xlink:href="#DejaVuSans-6c" x="117.439453"/>
      <use xlink:href="#DejaVuSans-69" x="145.222656"/>
      <use xlink:href="#DejaVuSans-62" x="173.005859"/>
      <use xlink:href="#DejaVuSans-72" x="236.482422"/>
      <use xlink:href="#DejaVuSans-61" x="277.595703"/>
      <use xlink:href="#DejaVuSans-73" x="338.875"/>
      <use xlink:href="#DejaVuSans-69" x="390.974609"/>
      <use xlink:href="#DejaVuSans-20" x="418.757812"/>
      <use xlink:href="#DejaVuSans-73" x="450.544922"/>
      <use xlink:href="#DejaVuSans-65" x="502.644531"/>
      <use xlink:href="#DejaVuSans-6d" x="564.167969"/>
      <use xlink:href="#DejaVuSans-70" x="661.580078"/>
      <use xlink:href="#DejaVuSans-75" x="725.056641"/>
      <use xlink:href="#DejaVuSans-72" x="788.435547"/>
      <use xlink:href="#DejaVuSans-6e" x="827.798828"/>
      <use xlink:href="#DejaVuSans-61" x="891.177734"/>
     </g>
    </g>
    <g id="line2d_30">
     <path d="M 57.79375 54.666516 
L 66.29375 54.666516 
L 74.79375 54.666516 
" style="fill: none; stroke: #2563eb; stroke-width: 2; stroke-linecap: square"/>
     <g>
      <use xlink:href="#m7a59d58c3b" x="66.29375" y="54.666516" style="fill: #2563eb; stroke: #2563eb"/>
     </g>
    </g>
    <g id="text_17">
     <!-- HCIE mentah (ECE 0,109) -->
     <g transform="translate(81.59375 57.641516) scale(0.085 -0.085)">
      <defs>
       <path id="DejaVuSans-39" d="M 703 97 
L 703 672 
Q 941 559 1184 500 
Q 1428 441 1663 441 
Q 2288 441 2617 861 
Q 2947 1281 2994 2138 
Q 2813 1869 2534 1725 
Q 2256 1581 1919 1581 
Q 1219 1581 811 2004 
Q 403 2428 403 3163 
Q 403 3881 828 4315 
Q 1253 4750 1959 4750 
Q 2769 4750 3195 4129 
Q 3622 3509 3622 2328 
Q 3622 1225 3098 567 
Q 2575 -91 1691 -91 
Q 1453 -91 1209 -44 
Q 966 3 703 97 
z
M 1959 2075 
Q 2384 2075 2632 2365 
Q 2881 2656 2881 3163 
Q 2881 3666 2632 3958 
Q 2384 4250 1959 4250 
Q 1534 4250 1286 3958 
Q 1038 3666 1038 3163 
Q 1038 2656 1286 2365 
Q 1534 2075 1959 2075 
z
" transform="scale(0.015625)"/>
      </defs>
      <use xlink:href="#DejaVuSans-48"/>
      <use xlink:href="#DejaVuSans-43" x="75.195312"/>
      <use xlink:href="#DejaVuSans-49" x="145.019531"/>
      <use xlink:href="#DejaVuSans-45" x="174.511719"/>
      <use xlink:href="#DejaVuSans-20" x="237.695312"/>
      <use xlink:href="#DejaVuSans-6d" x="269.482422"/>
      <use xlink:href="#DejaVuSans-65" x="366.894531"/>
      <use xlink:href="#DejaVuSans-6e" x="428.417969"/>
      <use xlink:href="#DejaVuSans-74" x="491.796875"/>
      <use xlink:href="#DejaVuSans-61" x="531.005859"/>
      <use xlink:href="#DejaVuSans-68" x="592.285156"/>
      <use xlink:href="#DejaVuSans-20" x="655.664062"/>
      <use xlink:href="#DejaVuSans-28" x="687.451172"/>
      <use xlink:href="#DejaVuSans-45" x="726.464844"/>
      <use xlink:href="#DejaVuSans-43" x="789.648438"/>
      <use xlink:href="#DejaVuSans-45" x="859.472656"/>
      <use xlink:href="#DejaVuSans-20" x="922.65625"/>
      <use xlink:href="#DejaVuSans-30" x="954.443359"/>
      <use xlink:href="#DejaVuSans-2c" x="1018.066406"/>
      <use xlink:href="#DejaVuSans-31" x="1049.853516"/>
      <use xlink:href="#DejaVuSans-30" x="1113.476562"/>
      <use xlink:href="#DejaVuSans-39" x="1177.099609"/>
      <use xlink:href="#DejaVuSans-29" x="1240.722656"/>
     </g>
    </g>
    <g id="line2d_31">
     <path d="M 57.79375 67.142922 
L 66.29375 67.142922 
L 74.79375 67.142922 
" style="fill: none; stroke: #16a34a; stroke-width: 2; stroke-linecap: square"/>
     <g>
      <use xlink:href="#mc9d7cb9438" x="66.29375" y="67.142922" style="fill: #16a34a; stroke: #16a34a; stroke-linejoin: miter"/>
     </g>
    </g>
    <g id="text_18">
     <!-- HCIE + Platt (ECE 0,004) -->
     <g transform="translate(81.59375 70.117922) scale(0.085 -0.085)">
      <defs>
       <path id="DejaVuSans-2b" d="M 2944 4013 
L 2944 2272 
L 4684 2272 
L 4684 1741 
L 2944 1741 
L 2944 0 
L 2419 0 
L 2419 1741 
L 678 1741 
L 678 2272 
L 2419 2272 
L 2419 4013 
L 2944 4013 
z
" transform="scale(0.015625)"/>
      </defs>
      <use xlink:href="#DejaVuSans-48"/>
      <use xlink:href="#DejaVuSans-43" x="75.195312"/>
      <use xlink:href="#DejaVuSans-49" x="145.019531"/>
      <use xlink:href="#DejaVuSans-45" x="174.511719"/>
      <use xlink:href="#DejaVuSans-20" x="237.695312"/>
      <use xlink:href="#DejaVuSans-2b" x="269.482422"/>
      <use xlink:href="#DejaVuSans-20" x="353.271484"/>
      <use xlink:href="#DejaVuSans-50" x="385.058594"/>
      <use xlink:href="#DejaVuSans-6c" x="445.361328"/>
      <use xlink:href="#DejaVuSans-61" x="473.144531"/>
      <use xlink:href="#DejaVuSans-74" x="534.423828"/>
      <use xlink:href="#DejaVuSans-74" x="573.632812"/>
      <use xlink:href="#DejaVuSans-20" x="612.841797"/>
      <use xlink:href="#DejaVuSans-28" x="644.628906"/>
      <use xlink:href="#DejaVuSans-45" x="683.642578"/>
      <use xlink:href="#DejaVuSans-43" x="746.826172"/>
      <use xlink:href="#DejaVuSans-45" x="816.650391"/>
      <use xlink:href="#DejaVuSans-20" x="879.833984"/>
      <use xlink:href="#DejaVuSans-30" x="911.621094"/>
      <use xlink:href="#DejaVuSans-2c" x="975.244141"/>
      <use xlink:href="#DejaVuSans-30" x="1007.03125"/>
      <use xlink:href="#DejaVuSans-30" x="1070.654297"/>
      <use xlink:href="#DejaVuSans-34" x="1134.277344"/>
      <use xlink:href="#DejaVuSans-29" x="1197.900391"/>
     </g>
    </g>
    <g id="line2d_32">
     <path d="M 57.79375 79.619328 
L 66.29375 79.619328 
L 74.79375 79.619328 
" style="fill: none; stroke: #64748b; stroke-width: 1.5; stroke-linecap: square"/>
     <g>
      <use xlink:href="#mf219e4c60e" x="66.29375" y="79.619328" style="fill: #64748b; stroke: #64748b; stroke-linejoin: miter"/>
     </g>
    </g>
    <g id="text_19">
     <!-- BKT (ECE 0,062) -->
     <g transform="translate(81.59375 82.594328) scale(0.085 -0.085)">
      <use xlink:href="#DejaVuSans-42"/>
      <use xlink:href="#DejaVuSans-4b" x="68.603516"/>
      <use xlink:href="#DejaVuSans-54" x="126.429688"/>
      <use xlink:href="#DejaVuSans-20" x="187.513672"/>
      <use xlink:href="#DejaVuSans-28" x="219.300781"/>
      <use xlink:href="#DejaVuSans-45" x="258.314453"/>
      <use xlink:href="#DejaVuSans-43" x="321.498047"/>
      <use xlink:href="#DejaVuSans-45" x="391.322266"/>
      <use xlink:href="#DejaVuSans-20" x="454.505859"/>
      <use xlink:href="#DejaVuSans-30" x="486.292969"/>
      <use xlink:href="#DejaVuSans-2c" x="549.916016"/>
      <use xlink:href="#DejaVuSans-30" x="581.703125"/>
      <use xlink:href="#DejaVuSans-36" x="645.326172"/>
      <use xlink:href="#DejaVuSans-32" x="708.949219"/>
      <use xlink:href="#DejaVuSans-29" x="772.572266"/>
     </g>
    </g>
   </g>
  </g>
 </g>
 <defs>
  <clipPath id="p99c169a338">
   <rect x="50.14375" y="31.056438" width="312.04" height="312.04"/>
  </clipPath>
 </defs>
</svg>
